{"title":"R.City ft. Adam Levine - Locked Away (2015.Reggae Fusion)","uid":12363430,"size":73422819,"categoryP":"video","categoryS":"music_videos","magnet":"?xt=urn:btih:e5443427466fc16514177019c397ecd458a5f859&amp;dn=R.City+ft.+Adam+Levine+-+Locked+Away+%282015.Reggae+Fusion%29&amp;tr=udp%3A%2F%2Ftracker.openbittorrent.com%3A80&amp;tr=udp%3A%2F%2Fopen.demonii.com%3A1337&amp;tr=udp%3A%2F%2Ftracker.coppersurfer.tk%3A6969&amp;tr=udp%3A%2F%2Fexodus.desync.com%3A6969","seeders":2,"leechers":0,"uploader":"MeRaDil","files":1,"time":1441560011,"description":"R.CITY ft.ADAM LEVINE - LOCKED AWAY\n\n &lt;a href=&quot;\nhttp://gifyu.com/images/Rcity-1.png&quot; rel=&quot;nofollow&quot; target=&quot;_NEW&quot;&gt;\nhttp://gifyu.com/images/Rcity-1.png&lt;/a&gt;\n\n\nMEDIA INFO\nGeneral\nR.City ft. Adam Levine - Locked Away\nFormat                                   : MPEG-4\nFormat profile                           : Base Media\nCodec ID                                 : isom\nFile size                                : 70.0 MiB\nDuration                                 : 4mn 25s\nOverall bit rate                         : 2 215 Kbps\nMusicVid name                            : Locked Away\nAlbum                                    : What Dreams Are Made Of\nPerformer                                : R. City ft. Adam Levine\nGenre                                    : Reggae Fusion\nContentType                              : Music Video\nRecorded date                            : 2015\nRating                                   : ***\nRelease date                             : USA - august 14 - 2015\nPart_ID                                  : Locked Away\n &lt;a href=&quot;\nhttps://thepiratebay.gd/user/MeRaDil&quot; rel=&quot;nofollow&quot; target=&quot;_NEW&quot;&gt;\nhttps://thepiratebay.gd/user/MeRaDil&lt;/a&gt;\n\nVideo\nID                                       : 1\nFormat                                   : AVC\nFormat/Info                              : Advanced Video Codec\nFormat profile                           : &lt;a class=&quot;__cf_email__&quot; href=&quot;/cdn-cgi/l/email-protection&quot; data-cfemail=&quot;9fd7f6f8f7dfd3abb1af&quot;&gt;[email&amp;#160;protected]&lt;/a&gt;&lt;script data-cfhash='f9e31' type=&quot;text/javascript&quot;&gt;\n/* &lt;![CDATA[ */!function(){try{var t=&quot;currentScript&quot;in document?document.currentScript:function(){for(var t=document.getElementsByTagName(&quot;script&quot;),e=t.length;e--;)if(t[e].getAttribute(&quot;data-cfhash&quot;))return t[e]}();if(t&amp;&amp;t.previousSibling){var e,r,n,i,c=t.previousSibling,a=c.getAttribute(&quot;data-cfemail&quot;);if(a){for(e=&quot;&quot;,r=parseInt(a.substr(0,2),16),n=2;a.length-n;n+=2)i=parseInt(a.substr(n,2),16)^r,e+=String.fromCharCode(i);e=document.createTextNode(e),c.parentNode.replaceChild(e,c)}t.parentNode.removeChild(t);}}catch(u){}}()/* ]]&gt; */&lt;/script&gt;\nFormat settings, CABAC                   : Yes\nFormat settings, ReFrames                : 3 frames\nCodec ID                                 : avc1\nCodec ID/Info                            : Advanced Video Coding\nDuration                                 : 4mn 25s\nBit rate                                 : 1 950 Kbps\nWidth                                    : 1 920 pixels\nHeight                                   : 1 080 pixels\nDisplay aspect ratio                     : 16:9\nFrame rate mode                          : Variable\nFrame rate                               : 23.976 fps\nMinimum frame rate                       : 23.974 fps\nMaximum frame rate                       : 23.981 fps\nColor space                              : YUV\nChroma subsampling                       : 4:2:0\nBit depth                                : 8 bits\nScan type                                : Progressive\nBits/(Pixel*Frame)                       : 0.039\nStream size                              : 61.6 MiB (88%)\n\nAudio\nID                                       : 2\nFormat                                   : AAC\nFormat/Info                              : Advanced Audio Codec\nFormat profile                           : LC\nCodec ID                                 : 40\nDuration                                 : 4mn 25s\nBit rate mode                            : Constant\nBit rate                                 : 256 Kbps\nChannel(s)                               : 2 channels\nChannel positions                        : Front: L R\nSampling rate                            : 44.1 KHz\nCompression mode                         : Lossy\nStream size                              : 8.09 MiB (12%)\n\nR.City * Adam Levine * Reggae Fusion * Promo","torrent":{"xt":"urn:btih:e5443427466fc16514177019c397ecd458a5f859","amp;dn":"R.City+ft.+Adam+Levine+-+Locked+Away+%282015.Reggae+Fusion%29","amp;tr":["udp%3A%2F%2Ftracker.openbittorrent.com%3A80","udp%3A%2F%2Fopen.demonii.com%3A1337","udp%3A%2F%2Ftracker.coppersurfer.tk%3A6969","udp%3A%2F%2Fexodus.desync.com%3A6969"],"infoHash":"e5443427466fc16514177019c397ecd458a5f859","infoHashBuffer":{"type":"Buffer","data":[229,68,52,39,70,111,193,101,20,23,112,25,195,151,236,212,88,165,248,89]},"announce":[],"urlList":[]}}